<svg width="42" height="48" viewBox="0 0 42 48" fill="none" xmlns="http://www.w3.org/2000/svg">
  <g clip-path="url(#clip0_2_7)">
    <path d="M18.5093 2.69178C20.0516 1.8059 21.9484 1.80601 23.4906 2.69206L38.2302 11.1606C39.7825 12.0524 40.7395 13.706 40.7394 15.4962L40.7387 32.3883C40.7386 34.1785 39.7815 35.832 38.2291 36.7237L23.4888 45.1905C21.9465 46.0764 20.0497 46.0763 18.5075 45.1902L3.7679 36.7217C2.21565 35.8299 1.25862 34.1762 1.2587 32.386L1.25941 15.494C1.25949 13.7038 2.21664 12.0503 3.76897 11.1586L18.5093 2.69178Z" stroke="#00FED8" stroke-width="3" stroke-miterlimit="10"/>
    <path d="M19.3831 14.9375V32H15.8675V14.9375H19.3831ZM26.18 22.2266V24.9688H18.4222V22.2266H26.18ZM27.0003 14.9375V17.6914H18.4222V14.9375H27.0003Z" fill="#00FED8"/>
  </g>
  <defs>
    <clipPath id="clip0_2_7">
      <rect width="42" height="47.88" fill="white"/>
    </clipPath>
  </defs>
</svg>
